<svg version="1" xmlns="http://www.w3.org/2000/svg" width="4128" height="4128" viewBox="0 0 3096.000000 3096.000000"><path d="M256.5 98.2c-11.7 1.3-30.8 6.1-42.7 10.8-54.4 21.6-93.5 69.2-105 128.1l-2.2 11.4-.4 1280.5c-.2 888.5.1 1284.1.8 1292.3 2.5 28.2 11.8 55.5 26.7 78.2 28.5 43.4 73.1 70.7 124.8 76.5 12.7 1.4 2563.6 1.4 2576 0 40.2-4.7 77.1-22.9 104.7-51.8 22.5-23.5 37.3-52.3 44-85.3l2.3-11.4v-2581l-2.3-11.4c-15-74.2-73.9-128.5-148.7-137.1-11.5-1.3-2566.2-1.2-2578 .2zm1554.1 989.3c12.1 2.2 28 7.6 39.3 13.5 35.6 18.8 59.5 49 69.8 88.1l2.7 10.4.4 72.2.3 72.3H1787v-122h-458v269h236.3c213 0 237.3.2 245.8 1.6 54.4 9.3 97.8 51.4 109.6 106.4 1.7 8 1.8 17.4 1.8 163v154.5l-2.7 10.7c-6.9 26.9-19.4 48.7-38.8 67.1-18.7 17.8-40.1 28.9-67.5 35l-10 2.2h-504l-10.2-2.3c-49.5-10.9-87.3-44.2-102.7-90.3-6.1-18.4-5.9-16.1-6.3-93.7l-.4-71.2H1316v122h471v-269l-237.2-.3c-220.6-.3-237.9-.4-245.8-2-48.9-10.1-89.1-45-104.4-90.8-6.4-19.4-6-7.3-6.4-172.9-.2-107.1 0-152.8.8-158.5 3.6-25.5 13.6-48 30.1-67.9 15.8-19 38-34 62-42 20.4-6.9 1.4-6.4 271-6.5 216.4-.1 245.7.1 253.5 1.4zM2830 1161v67h-695v-134h695v67zm-1844 2v67H290v-134h696v67zm1840 393v67h-695v-134h695v67zm-1844 2v67H286v-134h696v67zm1848 397v67h-695v-134h695v67zm-1844 2v67H290v-134h696v67z"/></svg>